<svg width="1440" height="1556" viewBox="0 0 1440 1556" fill="none" xmlns="http://www.w3.org/2000/svg">
<path d="M1440 796L-0.00012207 796L-5.24818e-05 -3.8185e-06L720 5.91259e-05L1440 0.00012207L1440 796Z" fill="#ECF3FF"/>
<path opacity="0.12" d="M689 796C689 650.32 614.051 473.087 404.394 473.087C203.473 473.087 99.5645 512.46 63.7022 376.131C21.082 214.113 -53.54 196 -94 196" stroke="#26F7FD" stroke-width="45"/>
<path opacity="0.12" d="M865 796C865 687.776 915.415 499.846 1070.75 499.846C1219.61 499.846 1296.59 529.095 1323.16 427.818C1354.74 307.456 1410.02 294 1440 294" stroke="#FE2C54" stroke-width="45"/>
<path opacity="0.56" d="M380 1126L-0.00012207 1126L-2.36323e-05 -3.81849e-06L1440 0.00012207L1440 120.75L712.5 120.75L665 281.5L570 563L380 1126Z" fill="#ECF3FF"/>
<path opacity="0.4" d="M438.5 1232L-0.00012207 1232L-1.43655e-05 4.54005e-05L877 0.00012207L438.5 1232Z" fill="#ECF3FF"/>
<path d="M313.633 1046L-6.10351e-05 1046L3.04091e-05 -5.05304e-05L313.633 -2.31117e-05L578 261.5L489.878 523L313.633 1046Z" fill="#ECF3FF"/>
</svg>
