<svg width="94" height="23" viewBox="0 0 94 23" fill="none" xmlns="http://www.w3.org/2000/svg">
<path d="M8.152 1.144V9.208C8.152 9.816 7.672 10.264 7.096 10.264H5.144C4.568 10.264 4.088 9.816 4.088 9.208V1.144C4.088 0.919998 3.896 0.727999 3.672 0.727999H1.336C1.112 0.727999 0.92 0.919998 0.92 1.144V22.584C0.92 22.808 1.112 23 1.336 23H3.672C3.896 23 4.088 22.808 4.088 22.584V14.104C4.088 13.496 4.568 13.048 5.144 13.048H7.096C7.672 13.048 8.152 13.496 8.152 14.104V22.584C8.152 22.808 8.344 23 8.568 23H10.872C11.128 23 11.32 22.808 11.32 22.584V1.144C11.32 0.919998 11.128 0.727999 10.872 0.727999H8.568C8.344 0.727999 8.152 0.919998 8.152 1.144ZM15.17 1.144V22.584C15.17 22.808 15.362 23 15.586 23H17.922C18.146 23 18.338 22.808 18.338 22.584V1.144C18.338 0.919998 18.146 0.727999 17.922 0.727999H15.586C15.362 0.727999 15.17 0.919998 15.17 1.144ZM31.1933 10.968H27.5133C27.2893 10.968 27.0653 11.192 27.0653 11.416V13.272C27.0653 13.528 27.2893 13.752 27.5133 13.752H28.4093C28.7933 13.752 29.1133 14.04 29.1133 14.456V18.84C29.1133 19.608 28.4733 20.248 27.6733 20.248H26.4573C25.6893 20.248 25.0493 19.608 25.0493 18.84V4.888C25.0493 4.088 25.6893 3.448 26.4573 3.448H27.4813C28.2812 3.448 28.8893 4.088 28.8893 4.888V6.808C28.8893 7.128 29.1773 7.384 29.4973 7.384H31.4813C31.8013 7.384 32.0893 7.128 32.0893 6.808V4.632C32.0893 2.456 30.3293 0.727999 28.1853 0.727999H25.7853C23.6413 0.727999 21.8813 2.456 21.8813 4.632V18.968C21.8813 21.208 23.6733 23 25.9133 23H28.2493C30.4573 23 32.2813 21.208 32.2813 18.968V12.056C32.2813 11.448 31.8013 10.968 31.1933 10.968ZM42.777 1.144V9.208C42.777 9.816 42.297 10.264 41.721 10.264H39.769C39.193 10.264 38.713 9.816 38.713 9.208V1.144C38.713 0.919998 38.521 0.727999 38.297 0.727999H35.961C35.737 0.727999 35.545 0.919998 35.545 1.144V22.584C35.545 22.808 35.737 23 35.961 23H38.297C38.521 23 38.713 22.808 38.713 22.584V14.104C38.713 13.496 39.193 13.048 39.769 13.048H41.721C42.297 13.048 42.777 13.496 42.777 14.104V22.584C42.777 22.808 42.969 23 43.193 23H45.497C45.753 23 45.945 22.808 45.945 22.584V1.144C45.945 0.919998 45.753 0.727999 45.497 0.727999H43.193C42.969 0.727999 42.777 0.919998 42.777 1.144ZM59.875 22.584L55.459 9.88C55.427 9.72 55.427 9.528 55.459 9.368L59.491 1.144C59.555 0.919998 59.427 0.727999 59.203 0.727999H56.867C56.643 0.727999 56.387 0.919998 56.323 1.144L52.963 7.928V1.144C52.963 0.919998 52.771 0.727999 52.547 0.727999H50.211C49.987 0.727999 49.795 0.919998 49.795 1.144V22.584C49.795 22.808 49.987 23 50.211 23H52.547C52.771 23 52.963 22.808 52.963 22.584V14.328L53.539 13.144L56.707 22.584C56.771 22.808 57.027 23 57.251 23H59.555C59.811 23 59.939 22.808 59.875 22.584ZM62.4825 1.144V22.584C62.4825 22.808 62.6745 23 62.8985 23H65.2345C65.4585 23 65.6505 22.808 65.6505 22.584V1.144C65.6505 0.919998 65.4585 0.727999 65.2345 0.727999H62.8985C62.6745 0.727999 62.4825 0.919998 62.4825 1.144ZM79.4658 0.727999H77.1618C76.9378 0.727999 76.7458 0.919998 76.7458 1.144V12.088C76.7458 12.408 76.2978 12.472 76.1698 12.184L72.4898 1.272C72.3938 0.952 72.0738 0.727999 71.7218 0.727999H69.9298C69.7057 0.727999 69.5138 0.919998 69.5138 1.144V22.584C69.5138 22.808 69.7057 23 69.9298 23H72.2658C72.4898 23 72.6818 22.808 72.6818 22.584V12.76C72.6818 12.472 73.1298 12.376 73.2258 12.664L77.0017 22.424C77.1298 22.776 77.4178 23 77.7698 23H79.4978C79.7218 23 79.9138 22.808 79.9138 22.584V1.144C79.9138 0.919998 79.7218 0.727999 79.4658 0.727999ZM92.7558 10.968H89.0758C88.8518 10.968 88.6278 11.192 88.6278 11.416V13.272C88.6278 13.528 88.8518 13.752 89.0758 13.752H89.9718C90.3558 13.752 90.6758 14.04 90.6758 14.456V18.84C90.6758 19.608 90.0358 20.248 89.2358 20.248H88.0198C87.2518 20.248 86.6118 19.608 86.6118 18.84V4.888C86.6118 4.088 87.2518 3.448 88.0198 3.448H89.0438C89.8438 3.448 90.4518 4.088 90.4518 4.888V6.808C90.4518 7.128 90.7398 7.384 91.0598 7.384H93.0438C93.3638 7.384 93.6518 7.128 93.6518 6.808V4.632C93.6518 2.456 91.8918 0.727999 89.7478 0.727999H87.3478C85.2038 0.727999 83.4438 2.456 83.4438 4.632V18.968C83.4438 21.208 85.2358 23 87.4758 23H89.8118C92.0198 23 93.8438 21.208 93.8438 18.968V12.056C93.8438 11.448 93.3638 10.968 92.7558 10.968Z" fill="#05060A"/>
</svg>
